<svg width="32" height="32" viewBox="0 0 32 32" fill="none" xmlns="http://www.w3.org/2000/svg">
<g clip-path="url(#clip0)">
<path d="M10.6288 24.8375C10.6288 24.9625 10.485 25.0625 10.3038 25.0625C10.0975 25.0812 9.95376 24.9812 9.95376 24.8375C9.95376 24.7125 10.0975 24.6125 10.2788 24.6125C10.4663 24.5938 10.6288 24.6938 10.6288 24.8375ZM8.68501 24.5562C8.64126 24.6812 8.76626 24.825 8.95376 24.8625C9.11626 24.925 9.30376 24.8625 9.34126 24.7375C9.37876 24.6125 9.26001 24.4688 9.07251 24.4125C8.91001 24.3687 8.72876 24.4312 8.68501 24.5562ZM11.4475 24.45C11.2663 24.4938 11.1413 24.6125 11.16 24.7563C11.1788 24.8813 11.3413 24.9625 11.5288 24.9188C11.71 24.875 11.835 24.7563 11.8163 24.6313C11.7975 24.5125 11.6288 24.4313 11.4475 24.45ZM15.56 0.5C6.89126 0.5 0.26001 7.08125 0.26001 15.75C0.26001 22.6812 4.62251 28.6125 10.8538 30.7C11.6538 30.8438 11.935 30.35 11.935 29.9438C11.935 29.5562 11.9163 27.4188 11.9163 26.1063C11.9163 26.1063 7.54126 27.0437 6.62251 24.2437C6.62251 24.2437 5.91001 22.425 4.88501 21.9562C4.88501 21.9562 3.45376 20.975 4.98501 20.9937C4.98501 20.9937 6.54126 21.1188 7.39751 22.6063C8.76626 25.0188 11.06 24.325 11.9538 23.9125C12.0975 22.9125 12.5038 22.2188 12.9538 21.8062C9.46001 21.4187 5.93501 20.9125 5.93501 14.9C5.93501 13.1812 6.41001 12.3188 7.41001 11.2188C7.24751 10.8125 6.71626 9.1375 7.57251 6.975C8.87876 6.56875 11.885 8.6625 11.885 8.6625C13.135 8.3125 14.4788 8.13125 15.81 8.13125C17.1413 8.13125 18.485 8.3125 19.735 8.6625C19.735 8.6625 22.7413 6.5625 24.0475 6.975C24.9038 9.14375 24.3725 10.8125 24.21 11.2188C25.21 12.325 25.8225 13.1875 25.8225 14.9C25.8225 20.9312 22.1413 21.4125 18.6475 21.8062C19.2225 22.3 19.71 23.2375 19.71 24.7062C19.71 26.8125 19.6913 29.4187 19.6913 29.9312C19.6913 30.3375 19.9788 30.8312 20.7725 30.6875C27.0225 28.6125 31.26 22.6812 31.26 15.75C31.26 7.08125 24.2288 0.5 15.56 0.5ZM6.33501 22.0562C6.25376 22.1187 6.27251 22.2625 6.37876 22.3813C6.47876 22.4813 6.62251 22.525 6.70376 22.4438C6.78501 22.3813 6.76626 22.2375 6.66001 22.1187C6.56001 22.0187 6.41626 21.975 6.33501 22.0562ZM5.66001 21.55C5.61626 21.6312 5.67876 21.7313 5.80376 21.7938C5.90376 21.8563 6.02876 21.8375 6.07251 21.75C6.11626 21.6688 6.05376 21.5688 5.92876 21.5063C5.80376 21.4688 5.70376 21.4875 5.66001 21.55ZM7.68501 23.775C7.58501 23.8562 7.62251 24.0438 7.76626 24.1625C7.91001 24.3062 8.09126 24.325 8.17251 24.225C8.25376 24.1438 8.21626 23.9562 8.09126 23.8375C7.95376 23.6938 7.76626 23.675 7.68501 23.775ZM6.97251 22.8563C6.87251 22.9188 6.87251 23.0813 6.97251 23.225C7.07251 23.3687 7.24126 23.4312 7.32251 23.3687C7.42251 23.2875 7.42251 23.125 7.32251 22.9813C7.23501 22.8375 7.07251 22.775 6.97251 22.8563Z" fill="white"/>
</g>
<defs>
<clipPath id="clip0">
<rect width="31" height="32" fill="white" transform="translate(0.26001)"/>
</clipPath>
</defs>
</svg>
