<svg width="35" height="30" viewBox="0 0 35 30" fill="none" xmlns="http://www.w3.org/2000/svg">
<g clip-path="url(#clip0)">
<path d="M7.75684 29.8523V14.4777L3.66724 10.1156L0 7.69493V27.1391C0 28.6404 1.04323 29.8523 2.32711 29.8523H7.75684Z" fill="white"/>
<path d="M26.3732 29.8523H31.8029C33.0906 29.8523 34.13 28.6358 34.13 27.1391V7.69507L29.9763 10.4677L26.3732 14.4777V29.8523Z" fill="white"/>
<path d="M7.7568 14.4777L7.20032 8.47041L7.7568 2.72083L17.065 10.8603L26.3731 2.72083L26.9957 8.16L26.3731 14.4777L17.065 22.6172L7.7568 14.4777Z" fill="white"/>
<path d="M26.3732 2.72086V14.4777L34.13 7.69495V4.07739C34.13 0.722205 30.845 -1.19049 28.5452 0.821686L26.3732 2.72086Z" fill="white"/>
<path d="M0 7.69479L3.56752 10.8145L7.75684 14.4776V2.7207L5.58479 0.821529C3.28101 -1.1908 0 0.722047 0 4.07707V7.69464V7.69479Z" fill="white"/>
</g>
<defs>
<clipPath id="clip0">
<rect width="34.13" height="30" fill="white"/>
</clipPath>
</defs>
</svg>
