<svg width="91" height="52" viewBox="0 0 91 52" fill="none" xmlns="http://www.w3.org/2000/svg">
<g clip-path="url(#clip0)">
<path d="M82.81 46.7246V3.76812C82.81 2.76875 82.3306 1.81031 81.4773 1.10366C80.6241 0.396997 79.4667 0 78.26 0L12.74 0C11.5333 0 10.376 0.396997 9.52266 1.10366C8.66937 1.81031 8.19 2.76875 8.19 3.76812V46.7246H0V48.9855C0 49.785 0.383499 50.5518 1.06613 51.1171C1.74876 51.6824 2.67461 52 3.64 52H87.36C88.3254 52 89.2512 51.6824 89.9339 51.1171C90.6165 50.5518 91 49.785 91 48.9855V46.7246H82.81Z" fill="#23475F"/>
<path d="M12.74 3.76811H78.26V42.2029H12.74V3.76811Z" fill="white"/>
<path d="M52.78 14.3188H39.13V17.3333H52.78V14.3188ZM30.03 20.3478V21.8551H61.88V20.3478H30.03ZM30.03 24.8696H61.88V23.3623H30.03V24.8696ZM30.03 27.8841H61.88V26.3768H30.03V27.8841ZM34.58 31.6529H57.33V30.1449H34.58V31.6529Z" fill="#9ACCED"/>
<path d="M8.18994 45.2174H82.8099V46.7246H8.18994V45.2174Z" fill="#1C394C"/>
<path d="M67.7951 48.2319C67.6157 48.2319 67.4382 48.2612 67.2725 48.3181C67.1069 48.375 66.9564 48.4583 66.8297 48.5634C66.7029 48.6684 66.6024 48.7931 66.5338 48.9303C66.4653 49.0675 66.43 49.2146 66.4301 49.3631C66.4301 49.5116 66.4655 49.6586 66.5342 49.7958C66.6028 49.933 66.7035 50.0576 66.8303 50.1626C66.9571 50.2675 67.1077 50.3508 67.2734 50.4076C67.4391 50.4644 67.6166 50.4936 67.796 50.4935C68.1581 50.4934 68.5054 50.3742 68.7614 50.162C69.0173 49.9499 69.1611 49.6622 69.161 49.3623C69.1608 49.0624 69.0169 48.7748 68.7607 48.5628C68.5045 48.3508 68.1572 48.2318 67.7951 48.2319ZM72.3451 48.2319C72.1657 48.2319 71.9882 48.2612 71.8225 48.3181C71.6569 48.375 71.5064 48.4583 71.3797 48.5634C71.2529 48.6684 71.1524 48.7931 71.0838 48.9303C71.0153 49.0675 70.98 49.2146 70.9801 49.3631C70.9801 49.5116 71.0155 49.6586 71.0842 49.7958C71.1528 49.933 71.2535 50.0576 71.3803 50.1626C71.5071 50.2675 71.6577 50.3508 71.8234 50.4076C71.9891 50.4644 72.1666 50.4936 72.346 50.4935C72.7081 50.4934 73.0554 50.3742 73.3114 50.162C73.5673 49.9499 73.7111 49.6622 73.711 49.3623C73.7108 49.0624 73.5669 48.7748 73.3107 48.5628C73.0545 48.3508 72.7072 48.2318 72.3451 48.2319ZM76.8951 48.2319C76.7157 48.2319 76.5382 48.2612 76.3726 48.3181C76.2069 48.375 76.0564 48.4583 75.9297 48.5634C75.8029 48.6684 75.7024 48.7931 75.6338 48.9303C75.5653 49.0675 75.53 49.2146 75.5301 49.3631C75.5301 49.5116 75.5655 49.6586 75.6342 49.7958C75.7028 49.933 75.8035 50.0576 75.9303 50.1626C76.0571 50.2675 76.2077 50.3508 76.3734 50.4076C76.5391 50.4644 76.7166 50.4936 76.896 50.4935C77.2581 50.4934 77.6054 50.3742 77.8614 50.162C78.1173 49.9499 78.2611 49.6622 78.261 49.3623C78.2608 49.0624 78.1169 48.7748 77.8607 48.5628C77.6045 48.3508 77.2572 48.2318 76.8951 48.2319Z" fill="#BCC4C8"/>
</g>
<defs>
<clipPath id="clip0">
<rect width="91" height="52" fill="white"/>
</clipPath>
</defs>
</svg>
