<svg width="525" height="409" viewBox="0 0 525 409" fill="none" xmlns="http://www.w3.org/2000/svg">
<path d="M263.051 389.859L481.688 262.999C483.26 262.069 484.574 260.735 485.5 259.126C486.426 257.516 486.934 255.686 486.974 253.814C487.013 251.942 486.584 250.091 485.726 248.441C484.869 246.791 483.613 245.399 482.081 244.399L270.126 108.653C268.514 107.627 266.665 107.07 264.773 107.041C262.88 107.013 261.016 107.513 259.376 108.49L28.0744 247.248C26.5045 248.208 25.2037 249.575 24.3002 251.212C23.3966 252.85 22.9214 254.703 22.9214 256.589C22.9214 258.474 23.3966 260.327 24.3002 261.965C25.2037 263.603 26.5045 264.969 28.0744 265.929L234.321 389.629C238.677 392.247 243.618 393.645 248.656 393.685C253.695 393.726 258.657 392.407 263.051 389.859Z" fill="#75D3B4"/>
<path style="mix-blend-mode:multiply" d="M268.446 208.692C268.17 208.461 266.582 207.335 266.359 207.186L310.524 179.049L333.178 190.839L286.348 219.993C273.774 211.283 280.875 217.714 268.446 208.692Z" fill="url(#paint0_linear)"/>
<path style="mix-blend-mode:multiply" d="M91.7569 302.179C91.5173 301.976 91.2676 301.785 91.0088 301.609L133.875 272.522L258.3 337.316L203.438 371.137C190.916 362.441 104.173 311.187 91.7569 302.179Z" fill="url(#paint1_linear)"/>
<path d="M375.257 261.249V265.888L372.986 268.765" fill="#ADCEE1"/>
<path d="M285.114 204.798L372.75 260.896C373.548 261.41 374.204 262.13 374.652 262.985C375.101 263.84 375.327 264.801 375.308 265.773C375.29 266.745 375.027 267.696 374.547 268.532C374.066 269.368 373.384 270.06 372.566 270.542L239.623 348.305C237.766 349.39 235.665 349.951 233.532 349.932C231.399 349.913 229.308 349.314 227.469 348.196L140.293 295.287C133.954 289.86 134.426 279.781 140.293 279.36L272.409 204.744C274.333 203.563 276.531 202.944 278.769 202.953C281.007 202.963 283.2 203.601 285.114 204.798Z" fill="#88D3D8"/>
<path d="M285.114 200.932L372.75 257.03C373.548 257.544 374.204 258.264 374.652 259.119C375.101 259.974 375.327 260.934 375.308 261.906C375.29 262.879 375.027 263.829 374.547 264.665C374.066 265.501 373.384 266.194 372.566 266.675L239.623 344.384C237.766 345.469 235.665 346.03 233.532 346.011C231.399 345.992 229.308 345.394 227.469 344.276L140.293 291.366C139.268 290.754 138.418 289.874 137.826 288.814C137.234 287.755 136.923 286.553 136.923 285.329C136.923 284.106 137.234 282.904 137.826 281.844C138.418 280.785 139.268 279.904 140.293 279.292L272.409 200.769C274.343 199.604 276.546 199.004 278.784 199.032C281.021 199.061 283.21 199.718 285.114 200.932Z" fill="white"/>
<path d="M281.544 193.267C281.544 193.267 245.188 71.9553 245.438 71.9553C245.687 71.9553 244.309 66.5287 237.799 69.6083L98.2144 154.521C98.2144 154.521 91.4419 157.356 92.7675 163.868C94.0931 170.38 128.31 282.575 128.31 282.575C129.023 283.634 130.042 284.432 131.221 284.854C132.401 285.276 133.679 285.3 134.873 284.922C139.125 283.566 278.25 200.037 278.25 200.037C279.531 199.556 280.586 198.587 281.198 197.328C281.81 196.07 281.934 194.617 281.544 193.267Z" fill="#68E1FD"/>
<path d="M243.088 80.7735L100.183 166.894L129.819 269.755L274.575 186.199L243.088 80.7735Z" fill="#193A42"/>
<path d="M290.496 213.793L322.521 234.414C323.091 234.779 323.559 235.29 323.88 235.899C324.201 236.508 324.362 237.192 324.349 237.885C324.336 238.578 324.148 239.255 323.804 239.85C323.461 240.446 322.973 240.938 322.389 241.279L207.467 308.962C205.749 309.987 203.8 310.527 201.817 310.527C199.833 310.527 197.884 309.987 196.166 308.962C188.777 304.512 176.059 296.494 168.276 291.556C167.581 291.117 167.009 290.5 166.615 289.764C166.222 289.028 166.019 288.199 166.029 287.358C166.038 286.517 166.258 285.692 166.668 284.966C167.078 284.239 167.664 283.635 168.367 283.213C191.612 269.239 267.435 223.656 284.038 213.698C285.021 213.106 286.142 212.802 287.28 212.819C288.417 212.835 289.529 213.172 290.496 213.793Z" fill="#68E1FD"/>
<path d="M288.75 269.755L248.601 293.089C247.99 293.454 247.483 293.978 247.131 294.609C246.778 295.24 246.593 295.956 246.593 296.684C246.593 297.413 246.778 298.129 247.131 298.76C247.483 299.391 247.99 299.915 248.601 300.28L272.226 314.565C273.036 315.049 273.955 315.303 274.89 315.303C275.825 315.303 276.744 315.049 277.554 314.565L318.636 290.349C319.148 290.045 319.574 289.606 319.87 289.077C320.166 288.548 320.322 287.948 320.322 287.337C320.322 286.726 320.166 286.126 319.87 285.597C319.574 285.068 319.148 284.63 318.636 284.325L294 269.782C293.202 269.309 292.298 269.059 291.378 269.054C290.458 269.049 289.553 269.291 288.75 269.755Z" fill="#68E1FD"/>
<path opacity="0.1" d="M290.496 213.793L322.521 234.414C323.091 234.779 323.559 235.29 323.88 235.899C324.201 236.508 324.362 237.192 324.349 237.885C324.336 238.578 324.148 239.255 323.804 239.85C323.461 240.446 322.973 240.938 322.389 241.279L207.467 308.962C205.749 309.987 203.8 310.527 201.817 310.527C199.833 310.527 197.884 309.987 196.166 308.962C188.777 304.512 176.059 296.494 168.276 291.556C167.581 291.117 167.009 290.5 166.615 289.764C166.222 289.028 166.019 288.199 166.029 287.358C166.038 286.517 166.258 285.692 166.668 284.966C167.078 284.239 167.664 283.635 168.367 283.213C191.612 269.239 267.435 223.656 284.038 213.698C285.021 213.106 286.142 212.802 287.28 212.819C288.417 212.835 289.529 213.172 290.496 213.793Z" fill="#053855"/>
<path opacity="0.1" d="M288.75 269.755L248.601 293.089C247.99 293.454 247.483 293.978 247.131 294.609C246.778 295.24 246.593 295.956 246.593 296.684C246.593 297.413 246.778 298.129 247.131 298.76C247.483 299.391 247.99 299.915 248.601 300.28L272.226 314.565C273.036 315.049 273.955 315.303 274.89 315.303C275.825 315.303 276.744 315.049 277.554 314.565L318.636 290.349C319.148 290.045 319.574 289.606 319.87 289.077C320.166 288.548 320.322 287.948 320.322 287.337C320.322 286.726 320.166 286.126 319.87 285.597C319.574 285.068 319.148 284.63 318.636 284.325L294 269.782C293.202 269.309 292.298 269.059 291.378 269.054C290.458 269.049 289.553 269.291 288.75 269.755Z" fill="#053855"/>
<path d="M188.724 152.947C189.019 153.925 189.095 154.96 188.947 155.973C188.769 157.808 188.023 159.534 186.821 160.897C186.539 161.15 186.236 161.377 185.916 161.576C185.784 161.643 185.706 161.576 185.666 161.359C185.365 160.013 185.41 158.61 185.797 157.289C186.216 155.551 187.204 154.017 188.593 152.947H188.724Z" fill="white"/>
<path d="M189.788 159.568C190.333 159.282 190.925 159.102 191.533 159.039C192.087 158.973 192.648 159.034 193.176 159.216C193.704 159.399 194.188 159.7 194.591 160.097C193.926 161.069 193.479 162.183 193.284 163.356C193.089 164.53 193.15 165.734 193.462 166.88C193.645 167.872 194.138 168.773 194.867 169.446C195.595 170.118 196.518 170.522 197.492 170.597C197.386 173.19 196.853 175.746 195.917 178.154C195.699 178.767 195.359 179.326 194.919 179.795C194.696 180.012 194.447 180.189 194.211 180.392C193.45 180.656 192.65 180.78 191.848 180.759C191.327 180.79 190.817 180.934 190.352 181.179C189.865 181.451 189.423 181.798 189.039 182.21L187.267 184.028L186.651 184.354C186.272 184.429 185.882 184.42 185.507 184.329C185.131 184.238 184.779 184.066 184.472 183.825C182.058 182.144 180.221 179.718 179.222 176.892C179.038 176.417 178.881 175.915 178.71 175.413L178.343 173.704V173.378C178.077 171.558 178.234 169.697 178.802 167.952C179.36 166.083 180.572 164.496 182.201 163.502C182.718 163.227 183.287 163.075 183.868 163.054C184.472 163.054 185.076 162.959 185.692 162.919C185.835 162.906 185.973 162.864 186.099 162.797C186.242 162.721 186.371 162.62 186.48 162.498C186.874 162.064 187.294 161.671 187.674 161.236C188.277 160.555 188.993 159.99 189.788 159.568Z" fill="white"/>
<path d="M179.445 206.114L214.239 185.507C214.67 185.225 214.979 184.782 215.099 184.27C215.22 183.758 215.144 183.217 214.888 182.762C214.631 182.307 214.213 181.972 213.723 181.829C213.232 181.686 212.707 181.744 212.258 181.993L177.45 202.601C177.019 202.882 176.711 203.326 176.59 203.838C176.469 204.35 176.545 204.89 176.802 205.345C177.058 205.801 177.476 206.135 177.967 206.279C178.457 206.422 178.982 206.363 179.432 206.114H179.445Z" fill="#F2F2F2"/>
<path d="M305.012 168.793V187.42H334.163V168.793" fill="#F8997C"/>
<path d="M319.581 176.2C327.634 176.2 334.163 172.884 334.163 168.793C334.163 164.702 327.634 161.386 319.581 161.386C311.527 161.386 304.999 164.702 304.999 168.793C304.999 172.884 311.527 176.2 319.581 176.2Z" fill="#DD654A"/>
<path d="M319.581 195.546C327.634 195.546 334.163 192.23 334.163 188.139C334.163 184.048 327.634 180.731 319.581 180.731C311.527 180.731 304.999 184.048 304.999 188.139C304.999 192.23 311.527 195.546 319.581 195.546Z" fill="#F8997C"/>
<path d="M335.908 125.489C332.837 124.132 328.571 119.859 324.844 119.994C323.614 123.689 322.855 127.534 322.586 131.431C321.879 137.767 321.738 144.156 322.166 150.519C322.254 151.939 322.367 153.354 322.507 154.765C322.545 155.181 322.656 155.585 322.836 155.959C322.836 160.87 322.836 165.786 322.836 170.706C322.854 170.816 322.909 170.917 322.992 170.989C323.075 171.061 323.18 171.101 323.288 171.101C323.397 171.101 323.502 171.061 323.585 170.989C323.667 170.917 323.723 170.816 323.741 170.706C323.741 165.976 323.741 161.25 323.741 156.529C325.201 156.03 326.602 155.361 327.915 154.535C330.653 152.758 332.723 150.068 333.782 146.91C336.131 140.127 334.648 132.584 336.879 125.882C336.551 125.746 336.236 125.624 335.908 125.489Z" fill="#297600"/>
<path d="M329.608 114.391C327.889 115.458 326.472 116.974 325.5 118.787C325.237 119.215 325.017 119.669 324.844 120.143L324.712 120.428C324.434 121.191 324.202 121.97 324.017 122.762C324.37 122.162 324.919 121.714 325.566 121.5C326.33 121.154 327.182 121.073 327.994 121.27C328.784 121.584 329.534 121.998 330.225 122.504C331.262 123.155 332.259 123.861 333.296 124.553C338.126 127.727 344.557 128.053 348.285 123.427C348.285 123.25 348.377 123.06 348.416 122.87C348.902 119.669 340.292 107.974 329.608 114.391Z" fill="#5FAD00"/>
<path d="M346.093 125.353L346.697 124.946C346.705 124.882 346.698 124.817 346.678 124.755C346.657 124.694 346.623 124.639 346.579 124.593C343.665 121.5 340.528 118.461 336.538 116.928C333.681 115.808 330.587 115.494 327.574 116.019C327.246 116.413 326.957 116.82 326.668 117.227C330.104 116.297 333.743 116.608 336.984 118.108C340.403 119.851 343.454 122.277 345.962 125.244C345.998 125.289 346.043 125.326 346.093 125.353Z" fill="#297600"/>
<path d="M297.163 132.096C295.046 133.223 293.296 134.969 292.129 137.115C290.963 139.261 290.431 141.714 290.601 144.17C290.942 153.056 305.117 144.387 308.884 136.885C312.651 129.382 313.241 140.086 313.241 140.086" fill="#297600"/>
<path d="M309.907 128.989C307.242 128.939 304.585 129.319 302.032 130.115C300.32 130.538 298.672 131.205 297.137 132.096C298.028 132.714 298.978 133.237 299.972 133.656C301.824 134.223 303.437 135.418 304.552 137.047C304.783 137.478 304.968 137.932 305.104 138.404C305.97 141.334 305.222 144.875 306.416 147.819C307.611 150.763 309.96 153.354 313.307 153.571C317.244 153.829 319.134 149.854 319.869 146.422C320.604 142.989 321.733 138.282 320.473 134.782C319.029 130.658 313.687 129.179 309.907 128.989Z" fill="#5FAD00"/>
<path d="M315.171 142.867C313.491 137.251 309.921 132.014 304.736 129.464H304.5L304.251 129.545L303.306 129.803C309.356 132.123 313.162 138.295 314.724 144.604C316.706 152.676 316.037 161.413 316.037 169.661C316.037 169.776 316.081 169.887 316.16 169.968C316.239 170.05 316.345 170.095 316.457 170.095C316.568 170.095 316.675 170.05 316.754 169.968C316.833 169.887 316.877 169.776 316.877 169.661C316.929 160.857 317.717 151.401 315.171 142.867Z" fill="#297600"/>
<defs>
<linearGradient id="paint0_linear" x1="311.666" y1="180.908" x2="287.384" y2="215.502" gradientUnits="userSpaceOnUse">
<stop stop-color="#78B46A"/>
<stop offset="1" stop-color="white"/>
</linearGradient>
<linearGradient id="paint1_linear" x1="24311.4" y1="21720.3" x2="22640.3" y2="25896.3" gradientUnits="userSpaceOnUse">
<stop stop-color="#78B46A"/>
<stop offset="1" stop-color="white"/>
</linearGradient>
</defs>
</svg>
