<svg width="35" height="30" viewBox="0 0 35 30" fill="none" xmlns="http://www.w3.org/2000/svg">
<path d="M24.7889 6.825C24.4514 6.825 24.1214 6.91297 23.8408 7.0778C23.5602 7.24262 23.3414 7.47689 23.2123 7.75097C23.0831 8.02506 23.0493 8.32666 23.1152 8.61764C23.181 8.90861 23.3435 9.17588 23.5822 9.38566C23.8209 9.59544 24.1249 9.7383 24.456 9.79618C24.787 9.85406 25.1301 9.82435 25.4419 9.71082C25.7538 9.59729 26.0203 9.40503 26.2078 9.15836C26.3953 8.91168 26.4954 8.62167 26.4954 8.325C26.4954 7.92718 26.3156 7.54564 25.9956 7.26434C25.6755 6.98304 25.2415 6.825 24.7889 6.825ZM31.3305 9.85C31.3028 8.81287 31.0818 7.78675 30.6763 6.8125C30.3147 5.97892 29.7519 5.2241 29.0267 4.6C28.3225 3.95928 27.4618 3.46772 26.5096 3.1625C25.4042 2.7952 24.2355 2.59651 23.0539 2.575C21.5465 2.5 21.063 2.5 17.195 2.5C13.3269 2.5 12.8434 2.5 11.336 2.575C10.1544 2.59651 8.98576 2.7952 7.88031 3.1625C6.9299 3.47081 6.0699 3.96195 5.36322 4.6C4.6343 5.21897 4.07506 5.97555 3.72783 6.8125C3.30996 7.78418 3.08392 8.81144 3.05945 9.85C2.97412 11.175 2.97412 11.6 2.97412 15C2.97412 18.4 2.97412 18.825 3.05945 20.15C3.08392 21.1886 3.30996 22.2158 3.72783 23.1875C4.07506 24.0245 4.6343 24.781 5.36322 25.4C6.0699 26.038 6.9299 26.5292 7.88031 26.8375C8.98576 27.2048 10.1544 27.4035 11.336 27.425C12.8434 27.5 13.3269 27.5 17.195 27.5C21.063 27.5 21.5465 27.5 23.0539 27.425C24.2355 27.4035 25.4042 27.2048 26.5096 26.8375C27.4618 26.5323 28.3225 26.0407 29.0267 25.4C29.7551 24.7782 30.3184 24.0227 30.6763 23.1875C31.0818 22.2132 31.3028 21.1871 31.3305 20.15C31.3305 18.825 31.4158 18.4 31.4158 15C31.4158 11.6 31.4158 11.175 31.3305 9.85ZM28.7707 20C28.7604 20.7935 28.5969 21.5796 28.2872 22.325C28.0601 22.869 27.6954 23.3605 27.2206 23.7625C26.7594 24.1756 26.2013 24.4955 25.5852 24.7C24.7373 24.9722 23.8429 25.1159 22.9402 25.125C21.5181 25.1875 20.9919 25.2 17.2518 25.2C13.5118 25.2 12.9856 25.2 11.5635 25.125C10.6262 25.1404 9.69289 25.0136 8.80466 24.75C8.21561 24.5351 7.68315 24.216 7.24037 23.8125C6.76837 23.4109 6.40823 22.919 6.18803 22.375C5.84084 21.6189 5.64827 20.8149 5.6192 20C5.6192 18.75 5.53387 18.2875 5.53387 15C5.53387 11.7125 5.53387 11.25 5.6192 10C5.62557 9.18882 5.79404 8.38493 6.11693 7.625C6.36728 7.09739 6.75155 6.62707 7.24037 6.25C7.67242 5.82021 8.20638 5.47887 8.80466 5.25C9.6715 4.97505 10.5851 4.83135 11.5066 4.825C12.9287 4.825 13.4549 4.75 17.195 4.75C20.935 4.75 21.4612 4.75 22.8833 4.825C23.786 4.8341 24.6804 4.97781 25.5284 5.25C26.1746 5.46082 26.7546 5.80356 27.2206 6.25C27.6867 6.63397 28.0508 7.10342 28.2872 7.625C28.6033 8.38617 28.7669 9.18972 28.7707 10C28.8418 11.25 28.856 11.7125 28.856 15C28.856 18.2875 28.8418 18.75 28.7707 20ZM17.195 8.5875C15.7527 8.58997 14.3436 8.96816 13.1458 9.67427C11.948 10.3804 11.0151 11.3827 10.4651 12.5547C9.91515 13.7266 9.77271 15.0156 10.0558 16.2587C10.3389 17.5017 11.0348 18.6432 12.0557 19.5387C13.0765 20.4343 14.3764 21.0438 15.7912 21.2902C17.2059 21.5366 18.672 21.4089 20.0042 20.9232C21.3364 20.4375 22.475 19.6155 23.276 18.5613C24.077 17.507 24.5045 16.2677 24.5045 15C24.5063 14.1564 24.3185 13.3208 23.9516 12.5412C23.5848 11.7616 23.0462 11.0535 22.3669 10.4576C21.6876 9.86161 20.8809 9.3896 19.9933 9.06866C19.1057 8.74773 18.1547 8.5842 17.195 8.5875ZM17.195 19.1625C16.2584 19.1625 15.3428 18.9184 14.564 18.461C13.7853 18.0036 13.1783 17.3535 12.8199 16.5929C12.4615 15.8323 12.3677 14.9954 12.5504 14.1879C12.7331 13.3805 13.1841 12.6388 13.8464 12.0567C14.5087 11.4745 15.3525 11.0781 16.2711 10.9175C17.1897 10.7569 18.1419 10.8393 19.0072 11.1544C19.8725 11.4694 20.6121 12.0029 21.1324 12.6874C21.6528 13.372 21.9305 14.1767 21.9305 15C21.9305 15.5466 21.808 16.0879 21.57 16.5929C21.332 17.0979 20.9832 17.5568 20.5435 17.9433C20.1038 18.3299 19.5817 18.6365 19.0072 18.8456C18.4326 19.0548 17.8168 19.1625 17.195 19.1625Z" fill="white"/>
</svg>
